<svg width="16" height="14" viewBox="0 0 16 14" fill="none" xmlns="http://www.w3.org/2000/svg">
<path d="M11.728 11.528C10.6816 12.5755 9.30442 13.2278 7.83102 13.3738C6.35763 13.5198 4.87919 13.1504 3.64761 12.3286C2.41602 11.5067 1.50747 10.2833 1.07677 8.86675C0.646057 7.45017 0.719831 5.92807 1.28552 4.55979C1.85121 3.1915 2.87381 2.06168 4.1791 1.36281C5.48439 0.663939 6.99162 0.439262 8.44399 0.727057C9.89636 1.01485 11.204 1.79731 12.1442 2.94113C13.0843 4.08494 13.5988 5.51935 13.6 6.99996H12C12.001 5.8894 11.6168 4.81286 10.913 3.95379C10.2092 3.09472 9.22931 2.50628 8.14026 2.28873C7.05122 2.07118 5.92044 2.23799 4.9406 2.76074C3.96077 3.28348 3.19251 4.12982 2.76675 5.15552C2.34099 6.18122 2.28406 7.32282 2.60567 8.38579C2.92729 9.44876 3.60754 10.3673 4.53051 10.985C5.45348 11.6026 6.56206 11.8811 7.66734 11.7729C8.77262 11.6648 9.80621 11.1768 10.592 10.392L11.728 11.528ZM9.59999 6.99996H16L12.8 10.2L9.59999 6.99996Z" fill="#00C2FF"/>
</svg>
